<svg viewBox="0 0 960 620" xmlns="http://www.w3.org/2000/svg" role="img" aria-labelledby="t2 d2">
<title id="t2">RAG：用你的記憶庫回答</title>
<desc id="d2">三步驟第二步。RAG 讓 AI 回答前先查你的私人筆記，有依據才回答，減少幻覺。</desc>
<style>
text{font-family:'Segoe UI','Noto Sans TC','PingFang TC',sans-serif;}
.title{font-weight:700;fill:#1f2430;}
.sub{fill:#8a92a6;}
.lead{font-weight:700;fill:#1f2430;}
.one{fill:#515767;}
.card{fill:#f6f7f9;stroke:#e4e7ec;stroke-width:1.5;}
.lbl{font-weight:700;fill:#1f2430;}
.slbl{fill:#8a92a6;}
.pill{fill:#f6f7f9;stroke:#e4e7ec;stroke-width:1.5;}
.chip{fill:#eef1f5;stroke:#e4e7ec;stroke-width:1;}
</style>
<rect x="0" y="0" width="960" height="620" rx="20" fill="#ffffff" stroke="#e6e6ea"/>
<rect x="24" y="20" width="912" height="68" rx="16" class="card"/>
<circle cx="66" cy="54" r="20" fill="#11a37f"/>
<text x="66" y="62" text-anchor="middle" font-size="22" font-weight="700" fill="#fff">2</text>
<text x="100" y="48" class="title" font-size="24">RAG 檢索增強生成</text>
<text x="100" y="74" class="sub" font-size="13">Retrieval-Augmented Generation · 用你的記憶庫回答</text>
<text x="912" y="58" text-anchor="end" class="sub" font-size="13">打造專屬 AI 助理 · 2 / 3</text>
<text x="480" y="130" text-anchor="middle" class="lead" font-size="30">用你的記憶庫回答</text>
<text x="480" y="160" text-anchor="middle" class="one" font-size="16">回答前先查你的私人筆記，有依據才回答，大幅減少幻覺</text>
<circle cx="232" cy="250" r="58" fill="#11a37f" fill-opacity="0.12" stroke="#11a37f" stroke-width="2"/>
<text x="232" y="271" text-anchor="middle" font-size="56">🧠</text>
<text x="350" y="240" text-anchor="middle" class="sub" font-size="12">檢索 Retrieve</text>
<line x1="300" y1="252" x2="392" y2="252" stroke="#11a37f" stroke-width="3"/>
<path d="M392 246 L406 252 L392 258 Z" fill="#11a37f"/>
<rect x="420" y="190" width="316" height="124" rx="16" class="card"/>
<text x="440" y="222" class="lbl" font-size="15">📚 Obsidian 私人知識庫</text>
<rect x="438" y="240" width="92" height="54" rx="10" class="chip"/>
<text x="484" y="272" text-anchor="middle" class="slbl" font-size="12">使用手冊</text>
<rect x="542" y="240" width="92" height="54" rx="10" class="chip"/>
<text x="588" y="272" text-anchor="middle" class="slbl" font-size="12">FAQ</text>
<rect x="646" y="240" width="72" height="54" rx="10" class="chip"/>
<text x="682" y="272" text-anchor="middle" class="slbl" font-size="12">交易規則</text>
<text x="480" y="348" text-anchor="middle" class="sub" font-size="13">流程：① 你問問題　▸　② 檢索相關筆記　▸　③ 帶著資料回答</text>
<rect x="38" y="368" width="200" height="92" rx="14" class="card"/>
<text x="70" y="420" text-anchor="middle" font-size="30">🔎</text>
<text x="98" y="406" class="lbl" font-size="15">語意檢索</text>
<text x="98" y="428" class="slbl" font-size="12">Vector Search</text>
<rect x="266" y="368" width="200" height="92" rx="14" class="card"/>
<text x="298" y="420" text-anchor="middle" font-size="30">✂️</text>
<text x="326" y="406" class="lbl" font-size="15">切塊策略</text>
<text x="326" y="428" class="slbl" font-size="12">Chunking</text>
<rect x="494" y="368" width="200" height="92" rx="14" class="card"/>
<text x="526" y="420" text-anchor="middle" font-size="30">🏷️</text>
<text x="554" y="406" class="lbl" font-size="15">標籤過濾</text>
<text x="554" y="428" class="slbl" font-size="12">Metadata</text>
<rect x="722" y="368" width="200" height="92" rx="14" class="card"/>
<text x="754" y="420" text-anchor="middle" font-size="30">🛡️</text>
<text x="782" y="406" class="lbl" font-size="15">減少幻覺</text>
<text x="782" y="428" class="slbl" font-size="12">Grounded</text>
<text x="480" y="500" text-anchor="middle" class="sub" font-size="13">重點：引用你的私有資料　·　有依據才回答　·　比關鍵字更懂語意</text>
<rect x="120" y="548" width="160" height="40" rx="20" class="pill"/>
<text x="200" y="573" text-anchor="middle" font-size="15" fill="#515767">① LLM 思考</text>
<text x="340" y="574" text-anchor="middle" font-size="18" fill="#8a92a6">▸</text>
<rect x="400" y="548" width="160" height="40" rx="20" fill="#11a37f"/>
<text x="480" y="573" text-anchor="middle" font-size="15" font-weight="700" fill="#fff">② RAG 記憶</text>
<text x="620" y="574" text-anchor="middle" font-size="18" fill="#8a92a6">▸</text>
<rect x="680" y="548" width="160" height="40" rx="20" class="pill"/>
<text x="760" y="573" text-anchor="middle" font-size="15" fill="#515767">③ Agent 行動</text>
</svg>
